<svg width="112" height="38" viewBox="0 0 112 38" fill="none" xmlns="http://www.w3.org/2000/svg">
<g clip-path="url(#clip0_700_9165)" filter="url(#filter0_d_700_9165)">
<path d="M14.8465 13.5245C15.3509 12.5697 16.1173 11.7849 17.0522 11.2657C18.0405 10.7063 19.1531 10.4141 20.2839 10.417C21.675 10.3931 23.0323 10.8538 24.1311 11.7227C25.228 12.591 25.9795 13.8338 26.2471 15.2219H22.1947C22.078 14.7868 21.8183 14.4055 21.4589 14.1418C21.0995 13.878 20.6621 13.7477 20.2198 13.7726C19.8959 13.762 19.5744 13.8326 19.2836 13.9783C18.9929 14.1241 18.7419 14.3404 18.5526 14.6083C18.1 15.2974 17.8795 16.1176 17.9243 16.9454C17.8803 17.7813 18.1005 18.6096 18.5526 19.3087C18.7448 19.5725 18.9968 19.7851 19.287 19.9283C19.5773 20.0716 19.8973 20.1412 20.2198 20.1313C20.6588 20.1576 21.0935 20.0311 21.4524 19.7724C21.8113 19.5137 22.0731 19.1384 22.1947 18.7081H26.2471C25.9695 20.0718 25.2351 21.2949 24.1696 22.1682C23.0728 23.0409 21.7141 23.502 20.3224 23.4739C19.1955 23.4986 18.0817 23.2241 17.0907 22.6774C16.1398 22.1609 15.3592 21.3707 14.8465 20.4055C14.3006 19.3388 14.0314 18.1478 14.0642 16.9454C14.0385 15.7563 14.3075 14.5798 14.8465 13.5245Z" fill="#1C1C1C"/>
<path d="M30.6712 22.6644C29.7106 22.1492 28.9142 21.3655 28.3757 20.4056C27.7875 19.3519 27.4864 18.1574 27.5037 16.9455C27.4788 15.7444 27.7711 14.5585 28.35 13.5116C28.8963 12.5519 29.702 11.7723 30.6712 11.2658C31.6812 10.7146 32.8083 10.4233 33.9542 10.4171C35.0962 10.4034 36.2239 10.677 37.2371 11.2136C38.2112 11.7253 39.0177 12.5147 39.5583 13.4855C40.1417 14.54 40.4342 15.7356 40.4047 16.9455C40.4258 18.1438 40.129 19.3256 39.5455 20.3664C38.9968 21.3353 38.1868 22.1238 37.2115 22.6383C36.1908 23.1796 35.0536 23.4533 33.9029 23.4348C32.7796 23.4549 31.669 23.1902 30.6712 22.6644ZM35.8008 19.2958C36.0687 18.9723 36.2712 18.5982 36.3966 18.1949C36.522 17.7916 36.568 17.367 36.5318 16.9455C36.5864 16.1085 36.325 15.2818 35.8008 14.6345C35.5618 14.3838 35.2757 14.1844 34.9596 14.0483C34.6435 13.9122 34.3038 13.8421 33.9606 13.8421C33.6174 13.8421 33.2777 13.9122 32.9616 14.0483C32.6455 14.1844 32.3594 14.3838 32.1203 14.6345C31.5962 15.2824 31.3307 16.1074 31.3765 16.9455C31.3227 17.7843 31.5789 18.6133 32.0947 19.2696C32.319 19.5327 32.597 19.7426 32.9094 19.8847C33.2217 20.0267 33.5608 20.0976 33.9029 20.0922C34.2569 20.1063 34.6097 20.0424 34.9373 19.905C35.2648 19.7675 35.5594 19.5597 35.8008 19.2958Z" fill="#1C1C1C"/>
<path d="M42.3926 13.5246C42.8211 12.5962 43.502 11.8123 44.3547 11.2657C45.1844 10.7198 46.1496 10.4254 47.1375 10.4171C47.911 10.4131 48.6748 10.5919 49.3689 10.9393C50.0083 11.2638 50.5556 11.7492 50.9591 12.3495V6.5H54.8063V23.278H50.9591V21.4762C50.5857 22.0886 50.059 22.5889 49.433 22.9255C48.7227 23.2933 47.9343 23.4772 47.1375 23.4608C46.1541 23.4724 45.1881 23.196 44.3547 22.6644C43.5034 22.1047 42.8236 21.3131 42.3926 20.3794C41.8888 19.3086 41.6384 18.1325 41.6616 16.9455C41.6366 15.7624 41.8871 14.5901 42.3926 13.5246ZM50.164 14.6866C49.919 14.4176 49.6211 14.2041 49.2896 14.0601C48.9582 13.9161 48.6007 13.8449 48.2404 13.851C47.881 13.8432 47.5241 13.9124 47.1927 14.0541C46.8613 14.1958 46.5629 14.4069 46.3168 14.6736C46.0445 14.9803 45.8351 15.3392 45.7008 15.7293C45.5664 16.1194 45.5099 16.5328 45.5345 16.9455C45.4879 17.7865 45.769 18.6122 46.3168 19.2435C46.5647 19.5089 46.8631 19.7203 47.1938 19.8648C47.5245 20.0092 47.8805 20.0837 48.2404 20.0837C48.6002 20.0837 48.9563 20.0092 49.2869 19.8648C49.6176 19.7203 49.916 19.5089 50.164 19.2435C50.4387 18.9327 50.6504 18.5696 50.7868 18.1753C50.9233 17.7809 50.9818 17.363 50.9591 16.9455C50.9975 16.1152 50.7116 15.3031 50.164 14.6866Z" fill="#1C1C1C"/>
<path d="M63.0522 23.4739C61.9132 23.4972 60.7874 23.223 59.782 22.6775C58.8566 22.1484 58.0999 21.3599 57.6019 20.4056C57.0338 19.3449 56.7424 18.1536 56.7556 16.9455C56.7495 15.7508 57.0407 14.5739 57.6019 13.5246C58.1027 12.567 58.8701 11.7812 59.8077 11.2658C60.7947 10.7149 61.901 10.4232 63.0265 10.4171C64.1375 10.398 65.2354 10.6628 66.2197 11.1875C67.1393 11.6934 67.8996 12.4538 68.4127 13.381C68.9573 14.4017 69.2313 15.5492 69.2077 16.7105C69.2068 17.0905 69.1811 17.4699 69.1308 17.8464H60.5387C60.5482 18.5224 60.8148 19.1683 61.2825 19.6483C61.788 20.0438 62.4155 20.2428 63.0522 20.2097V23.4739ZM65.2964 15.7443C65.3106 15.4467 65.2579 15.1496 65.1424 14.8759C65.0268 14.6021 64.8514 14.3588 64.6295 14.1644C64.1654 13.7634 63.5707 13.5538 62.9624 13.5769C62.3786 13.5579 61.8082 13.7576 61.3594 14.1383C60.9065 14.5569 60.6154 15.1264 60.5387 15.7443H65.2964Z" fill="#1C1C1C"/>
<path d="M76.8381 6.5L73.1319 23.278H69.2847L73.0806 6.5H76.8381Z" fill="#1C1C1C"/>
<path d="M77.7228 13.5246C78.1601 12.598 78.8445 11.8153 79.6977 11.2657C80.5219 10.7181 81.4835 10.4235 82.4677 10.417C83.2701 10.4003 84.0638 10.5889 84.776 10.9654C85.3981 11.2909 85.9213 11.783 86.2893 12.3886V10.6521H90.1365V23.278H86.2893V21.4892C85.9034 22.0924 85.3741 22.5865 84.7504 22.9255C84.0401 23.2933 83.2516 23.4772 82.4549 23.4608C81.4793 23.4741 80.5211 23.1973 79.6977 22.6644C78.8462 22.1013 78.163 21.3109 77.7228 20.3794C77.2313 19.3048 76.9858 18.1307 77.0046 16.9455C76.9818 15.764 77.2276 14.5933 77.7228 13.5246ZM85.507 14.6866C85.262 14.4176 84.9641 14.2041 84.6327 14.0601C84.3012 13.9161 83.9437 13.8449 83.5834 13.851C83.224 13.8432 82.8671 13.9124 82.5357 14.0541C82.2043 14.1958 81.9059 14.4069 81.6598 14.6736C81.3858 14.9796 81.1745 15.3381 81.0379 15.7281C80.9014 16.1182 80.8425 16.532 80.8647 16.9455C80.8216 17.7883 81.1074 18.6142 81.6598 19.2435C81.9077 19.5089 82.2061 19.7203 82.5368 19.8647C82.8675 20.0092 83.2236 20.0837 83.5834 20.0837C83.9432 20.0837 84.2993 20.0092 84.63 19.8647C84.9606 19.7203 85.259 19.5089 85.507 19.2435C85.78 18.932 85.9897 18.5686 86.124 18.1742C86.2583 17.7797 86.3144 17.3621 86.2893 16.9455C86.3312 16.117 86.05 15.3051 85.507 14.6866Z" fill="#1C1C1C"/>
<path d="M98.1901 11.0177C98.889 10.6246 99.6743 10.418 100.473 10.4171C101.456 10.4098 102.42 10.6859 103.256 11.2135C104.102 11.7671 104.782 12.5491 105.218 13.4724C105.727 14.5548 105.973 15.7459 105.936 16.9455C105.963 18.1315 105.717 19.3077 105.218 20.3794C104.778 21.3074 104.1 22.097 103.256 22.6644C102.422 23.196 101.456 23.4724 100.473 23.4608C99.6799 23.4789 98.8953 23.2948 98.1901 22.9255C97.5652 22.6 97.0347 22.1139 96.6512 21.5154V23.278H92.804V6.5H96.6512V12.4409C97.0261 11.8317 97.5585 11.3393 98.1901 11.0177ZM101.281 14.6736C101.033 14.4052 100.733 14.1932 100.399 14.0515C100.065 13.9097 99.7057 13.8414 99.3442 13.851C98.9839 13.8449 98.6264 13.9161 98.295 14.0601C97.9635 14.2041 97.6656 14.4176 97.4206 14.6866C96.873 15.3031 96.5871 16.1152 96.6255 16.9455C96.5831 17.7842 96.869 18.6059 97.4206 19.2304C97.6686 19.4959 97.967 19.7073 98.2977 19.8517C98.6283 19.9961 98.9844 20.0706 99.3442 20.0706C99.7041 20.0706 100.06 19.9961 100.391 19.8517C100.721 19.7073 101.02 19.4959 101.268 19.2304C101.544 18.9226 101.757 18.5623 101.896 18.1701C102.035 17.778 102.096 17.3618 102.076 16.9455C102.098 16.532 102.039 16.1182 101.903 15.7282C101.766 15.3381 101.555 14.9796 101.281 14.6736Z" fill="#1C1C1C"/>
<path d="M66.1427 23.4609C67.1271 23.4609 67.9252 22.6483 67.9252 21.646C67.9252 20.6436 67.1271 19.8311 66.1427 19.8311C65.1582 19.8311 64.3601 20.6436 64.3601 21.646C64.3601 22.6483 65.1582 23.4609 66.1427 23.4609Z" fill="#FF7070"/>
</g>
<defs>
<filter id="filter0_d_700_9165" x="0" y="0.5" width="112" height="37" filterUnits="userSpaceOnUse" color-interpolation-filters="sRGB">
<feFlood flood-opacity="0" result="BackgroundImageFix"/>
<feColorMatrix in="SourceAlpha" type="matrix" values="0 0 0 0 0 0 0 0 0 0 0 0 0 0 0 0 0 0 127 0" result="hardAlpha"/>
<feOffset dx="-4" dy="4"/>
<feGaussianBlur stdDeviation="5"/>
<feComposite in2="hardAlpha" operator="out"/>
<feColorMatrix type="matrix" values="0 0 0 0 0 0 0 0 0 0 0 0 0 0 0 0 0 0 0.1 0"/>
<feBlend mode="normal" in2="BackgroundImageFix" result="effect1_dropShadow_700_9165"/>
<feBlend mode="normal" in="SourceGraphic" in2="effect1_dropShadow_700_9165" result="shape"/>
</filter>
<clipPath id="clip0_700_9165">
<rect width="92" height="17" fill="white" transform="translate(14 6.5)"/>
</clipPath>
</defs>
</svg>
