<svg width="198" height="36" viewBox="0 0 198 36" fill="none" xmlns="http://www.w3.org/2000/svg">
<g clip-path="url(#clip0_5_68)">
<path d="M1.82161 14.8756C2.9073 12.8535 4.55669 11.1916 6.56875 10.0922C8.69577 8.90763 11.0903 8.28888 13.5239 8.29496C16.5177 8.2444 19.439 9.21993 21.8038 11.0599C24.1644 12.8987 25.7819 15.5305 26.3577 18.4701H17.6362C17.3851 17.5486 16.8262 16.7412 16.0527 16.1827C15.2792 15.6242 14.3379 15.3482 13.3859 15.401C12.6888 15.3784 11.9969 15.528 11.3712 15.8366C10.7454 16.1452 10.2051 16.6033 9.79792 17.1705C8.82372 18.6299 8.34911 20.3669 8.44553 22.1198C8.35097 23.89 8.82492 25.6439 9.79792 27.1245C10.2115 27.6831 10.7537 28.1333 11.3785 28.4366C12.0032 28.7399 12.6919 28.8873 13.3859 28.8664C14.3306 28.9222 15.2662 28.6541 16.0387 28.1064C16.8112 27.5586 17.3746 26.7638 17.6362 25.8526H26.3577C25.7604 28.7404 24.1798 31.3305 21.8866 33.1798C19.5261 35.0278 16.6019 36.0043 13.6067 35.9447C11.1814 35.9972 8.78436 35.4159 6.65155 34.2581C4.60499 33.1643 2.92516 31.491 1.82161 29.447C0.646864 27.1881 0.0673647 24.666 0.138033 22.1198C0.0826427 19.6017 0.66167 17.1102 1.82161 14.8756Z" fill="#1C1C1C"/>
<path d="M35.8796 34.2304C33.8121 33.1392 32.0983 31.4798 30.9392 29.447C29.6733 27.2157 29.0254 24.6861 29.0625 22.1198C29.009 19.5762 29.6381 17.0648 30.884 14.8479C32.0596 12.8156 33.7937 11.1648 35.8796 10.0922C38.0533 8.92493 40.4789 8.30794 42.9451 8.29492C45.4029 8.26594 47.8299 8.84529 50.0106 9.98156C52.1069 11.0652 53.8427 12.7369 55.0062 14.7926C56.2618 17.0258 56.8912 19.5575 56.8277 22.1198C56.8733 24.6573 56.2344 27.16 54.9786 29.364C53.7977 31.4158 52.0545 33.0855 49.9554 34.1751C47.7586 35.3214 45.3113 35.901 42.8347 35.8617C40.4171 35.9044 38.027 35.3438 35.8796 34.2304ZM46.9195 27.0968C47.4959 26.4119 47.9317 25.6196 48.2016 24.7655C48.4716 23.9114 48.5705 23.0123 48.4926 22.1198C48.6102 20.3472 48.0474 18.5966 46.9195 17.2258C46.4049 16.6949 45.7893 16.2728 45.109 15.9845C44.4287 15.6963 43.6975 15.5478 42.9589 15.5478C42.2203 15.5478 41.4891 15.6963 40.8088 15.9845C40.1285 16.2728 39.5129 16.6949 38.9984 17.2258C37.8703 18.5979 37.2988 20.345 37.3976 22.1198C37.2818 23.8961 37.8331 25.6516 38.9432 27.0415C39.4259 27.5984 40.0243 28.0429 40.6965 28.3438C41.3688 28.6447 42.0985 28.7948 42.8347 28.7834C43.5966 28.8132 44.356 28.678 45.0609 28.3869C45.7659 28.0958 46.3998 27.6558 46.9195 27.0968Z" fill="#1C1C1C"/>
<path d="M61.1057 14.8756C62.0279 12.9095 63.4934 11.2495 65.3284 10.0922C67.1142 8.93597 69.1914 8.31263 71.3175 8.29493C72.9821 8.28662 74.626 8.6652 76.1199 9.40092C77.4959 10.088 78.674 11.1159 79.5422 12.3871V0H87.8221V35.53H79.5422V31.7143C78.7388 33.0112 77.6052 34.0705 76.2579 34.7834C74.7291 35.5624 73.0323 35.9517 71.3175 35.917C69.201 35.9416 67.1221 35.3562 65.3284 34.2304C63.4964 33.0453 62.0333 31.3688 61.1057 29.3917C60.0214 27.1241 59.4826 24.6336 59.5325 22.1198C59.4787 19.6145 60.0178 17.132 61.1057 14.8756ZM77.8311 17.3364C77.3038 16.7666 76.6626 16.3146 75.9493 16.0097C75.236 15.7048 74.4665 15.5539 73.6911 15.5668C72.9177 15.5504 72.1495 15.6969 71.4363 15.997C70.7231 16.2971 70.0809 16.744 69.5512 17.3088C68.9652 17.9582 68.5145 18.7182 68.2254 19.5443C67.9363 20.3704 67.8147 21.246 67.8676 22.1198C67.7674 23.9007 68.3723 25.6494 69.5512 26.9862C70.0848 27.5484 70.727 27.996 71.4387 28.3018C72.1504 28.6077 72.9167 28.7654 73.6911 28.7654C74.4655 28.7654 75.2318 28.6077 75.9435 28.3018C76.6552 27.996 77.2974 27.5484 77.8311 26.9862C78.4223 26.328 78.8778 25.5592 79.1715 24.7241C79.4652 23.889 79.5912 23.0039 79.5422 22.1198C79.6249 20.3615 79.0097 18.6419 77.8311 17.3364Z" fill="#1C1C1C"/>
<path d="M105.569 35.9447C103.117 35.994 100.694 35.4133 98.5308 34.2581C96.5391 33.1378 94.9105 31.4679 93.8388 29.447C92.6162 27.2009 91.989 24.6781 92.0173 22.1198C92.0043 19.5898 92.631 17.0976 93.8388 14.8756C94.9167 12.8477 96.5681 11.1837 98.586 10.0922C100.71 8.9256 103.091 8.3079 105.514 8.29496C107.904 8.25441 110.267 8.8153 112.386 9.9263C114.365 10.9976 116.001 12.608 117.105 14.5715C118.278 16.7328 118.867 19.1629 118.817 21.6221C118.815 22.4268 118.759 23.2304 118.651 24.0277H100.159C100.18 25.4592 100.753 26.827 101.76 27.8433C102.848 28.6809 104.198 29.1024 105.569 29.0323V35.9447ZM110.399 19.5761C110.429 18.9458 110.316 18.3168 110.067 17.737C109.818 17.1572 109.441 16.642 108.963 16.2304C107.965 15.3813 106.685 14.9374 105.376 14.9862C104.119 14.946 102.891 15.369 101.926 16.1751C100.951 17.0615 100.324 18.2677 100.159 19.5761H110.399Z" fill="#1C1C1C"/>
<path d="M135.238 0L127.262 35.53H118.982L127.152 0H135.238Z" fill="#1C1C1C"/>
<path d="M137.143 14.8755C138.084 12.9135 139.557 11.256 141.393 10.0921C143.167 8.93251 145.236 8.30862 147.355 8.29489C149.081 8.25949 150.79 8.65878 152.323 9.45618C153.661 10.1455 154.787 11.1875 155.579 12.47V8.79259H163.859V35.5299H155.579V31.7419C154.749 33.0192 153.61 34.0654 152.267 34.7834C150.739 35.5623 149.042 35.9517 147.327 35.917C145.227 35.9451 143.165 35.359 141.393 34.2304C139.56 33.0381 138.09 31.3643 137.143 29.3917C136.085 27.1161 135.557 24.6297 135.597 22.1198C135.548 19.618 136.077 17.1386 137.143 14.8755ZM153.896 17.3364C153.368 16.7666 152.727 16.3145 152.014 16.0096C151.301 15.7047 150.531 15.5538 149.756 15.5668C148.982 15.5503 148.214 15.6969 147.501 15.997C146.788 16.2971 146.146 16.744 145.616 17.3087C145.026 17.9568 144.571 18.716 144.278 19.5419C143.984 20.3679 143.857 21.2442 143.905 22.1198C143.812 23.9045 144.427 25.6537 145.616 26.9861C146.149 27.5483 146.792 27.9959 147.503 28.3018C148.215 28.6077 148.981 28.7654 149.756 28.7654C150.53 28.7654 151.296 28.6077 152.008 28.3018C152.72 27.9959 153.362 27.5483 153.896 26.9861C154.483 26.3266 154.935 25.557 155.224 24.7217C155.513 23.8865 155.633 23.0021 155.579 22.1198C155.669 20.3653 155.064 18.6462 153.896 17.3364Z" fill="#1C1C1C"/>
<path d="M181.192 9.56682C182.696 8.73441 184.386 8.29687 186.105 8.29493C188.22 8.27954 190.296 8.8643 192.094 9.98157C193.916 11.1539 195.378 12.8098 196.316 14.765C197.412 17.0573 197.942 19.5796 197.862 22.1198C197.922 24.6315 197.392 27.1222 196.316 29.3917C195.371 31.357 193.912 33.029 192.094 34.2304C190.3 35.3562 188.221 35.9416 186.105 35.917C184.398 35.9552 182.71 35.5656 181.192 34.7834C179.847 34.0942 178.705 33.0648 177.88 31.7972V35.53H169.6V0H177.88V12.5806C178.687 11.2906 179.833 10.2479 181.192 9.56682ZM187.843 17.3088C187.311 16.7405 186.664 16.2915 185.946 15.9913C185.227 15.6911 184.454 15.5464 183.676 15.5668C182.9 15.5539 182.131 15.7048 181.418 16.0097C180.704 16.3146 180.063 16.7666 179.536 17.3364C178.357 18.6419 177.742 20.3615 177.825 22.1198C177.733 23.896 178.349 25.6361 179.536 26.9585C180.07 27.5207 180.712 27.9683 181.423 28.2742C182.135 28.5801 182.901 28.7378 183.676 28.7378C184.45 28.7378 185.217 28.5801 185.928 28.2742C186.64 27.9683 187.282 27.5207 187.816 26.9585C188.41 26.3067 188.869 25.5436 189.168 24.7132C189.466 23.8828 189.598 23.0014 189.555 22.1198C189.602 21.2443 189.475 20.368 189.182 19.542C188.888 18.716 188.433 17.9568 187.843 17.3088Z" fill="#1C1C1C"/>
<path d="M112.22 35.9171C114.339 35.9171 116.057 34.1964 116.057 32.0738C116.057 29.9512 114.339 28.2305 112.22 28.2305C110.102 28.2305 108.384 29.9512 108.384 32.0738C108.384 34.1964 110.102 35.9171 112.22 35.9171Z" fill="#FF7070"/>
</g>
<defs>
<clipPath id="clip0_5_68">
<rect width="198" height="36" fill="white"/>
</clipPath>
</defs>
</svg>
