<svg width="112" height="38" viewBox="0 0 112 38" fill="none" xmlns="http://www.w3.org/2000/svg">
<g clip-path="url(#clip0_815_7146)" filter="url(#filter0_d_815_7146)">
<path d="M14.8465 13.5245C15.3509 12.5697 16.1173 11.7849 17.0522 11.2657C18.0405 10.7063 19.1531 10.4141 20.2839 10.417C21.675 10.3931 23.0323 10.8538 24.1311 11.7227C25.228 12.591 25.9795 13.8338 26.2471 15.2219H22.1947C22.078 14.7868 21.8183 14.4055 21.4589 14.1418C21.0995 13.878 20.6621 13.7477 20.2198 13.7726C19.8959 13.762 19.5744 13.8326 19.2836 13.9783C18.9929 14.1241 18.7419 14.3404 18.5526 14.6083C18.1 15.2974 17.8795 16.1176 17.9243 16.9454C17.8803 17.7813 18.1005 18.6096 18.5526 19.3087C18.7448 19.5725 18.9968 19.7851 19.287 19.9283C19.5773 20.0716 19.8973 20.1412 20.2198 20.1313C20.6588 20.1576 21.0935 20.0311 21.4524 19.7724C21.8113 19.5137 22.0731 19.1384 22.1947 18.7081H26.2471C25.9695 20.0718 25.2351 21.2949 24.1696 22.1682C23.0728 23.0409 21.7141 23.502 20.3224 23.4739C19.1955 23.4986 18.0817 23.2241 17.0907 22.6774C16.1398 22.1609 15.3592 21.3707 14.8465 20.4055C14.3006 19.3388 14.0314 18.1478 14.0642 16.9454C14.0385 15.7563 14.3075 14.5798 14.8465 13.5245Z" fill="#F2F2F2"/>
<path d="M30.6715 22.6644C29.7108 22.1492 28.9145 21.3655 28.3759 20.4056C27.7877 19.3519 27.4867 18.1574 27.5039 16.9455C27.4791 15.7444 27.7714 14.5585 28.3503 13.5116C28.8965 12.5519 29.7022 11.7723 30.6715 11.2658C31.6814 10.7146 32.8085 10.4233 33.9544 10.4171C35.0964 10.4034 36.2241 10.677 37.2374 11.2136C38.2114 11.7253 39.018 12.5147 39.5585 13.4855C40.142 14.54 40.4344 15.7356 40.4049 16.9455C40.4261 18.1438 40.1293 19.3256 39.5457 20.3664C38.997 21.3353 38.1871 22.1238 37.2117 22.6383C36.191 23.1796 35.0539 23.4533 33.9031 23.4348C32.7798 23.4549 31.6692 23.1902 30.6715 22.6644ZM35.8011 19.2958C36.0689 18.9723 36.2714 18.5982 36.3968 18.1949C36.5223 17.7916 36.5682 17.367 36.5321 16.9455C36.5867 16.1085 36.3252 15.2818 35.8011 14.6345C35.562 14.3838 35.276 14.1844 34.9599 14.0483C34.6438 13.9122 34.304 13.8421 33.9608 13.8421C33.6176 13.8421 33.2779 13.9122 32.9618 14.0483C32.6457 14.1844 32.3596 14.3838 32.1206 14.6345C31.5964 15.2824 31.3309 16.1074 31.3768 16.9455C31.323 17.7843 31.5791 18.6133 32.0949 19.2696C32.3192 19.5327 32.5973 19.7426 32.9096 19.8847C33.222 20.0267 33.5611 20.0976 33.9031 20.0922C34.2571 20.1063 34.61 20.0424 34.9375 19.905C35.2651 19.7675 35.5596 19.5597 35.8011 19.2958Z" fill="#F2F2F2"/>
<path d="M42.3923 13.5246C42.8209 12.5962 43.5018 11.8123 44.3544 11.2657C45.1842 10.7198 46.1494 10.4254 47.1373 10.4171C47.9107 10.4131 48.6745 10.5919 49.3686 10.9393C50.008 11.2638 50.5554 11.7492 50.9588 12.3495V6.5H54.8061V23.278H50.9588V21.4762C50.5855 22.0886 50.0588 22.5889 49.4328 22.9255C48.7224 23.2933 47.934 23.4772 47.1373 23.4608C46.1538 23.4724 45.1879 23.196 44.3544 22.6644C43.5032 22.1047 42.8234 21.3131 42.3923 20.3794C41.8885 19.3086 41.6382 18.1325 41.6614 16.9455C41.6364 15.7624 41.8869 14.5901 42.3923 13.5246ZM50.1637 14.6866C49.9188 14.4176 49.6208 14.2041 49.2894 14.0601C48.9579 13.9161 48.6004 13.8449 48.2401 13.851C47.8808 13.8432 47.5238 13.9124 47.1925 14.0541C46.8611 14.1958 46.5626 14.4069 46.3165 14.6736C46.0443 14.9803 45.8348 15.3392 45.7005 15.7293C45.5662 16.1194 45.5097 16.5328 45.5342 16.9455C45.4877 17.7865 45.7688 18.6122 46.3165 19.2435C46.5645 19.5089 46.8629 19.7203 47.1936 19.8648C47.5242 20.0092 47.8803 20.0837 48.2401 20.0837C48.6 20.0837 48.956 20.0092 49.2867 19.8648C49.6174 19.7203 49.9158 19.5089 50.1637 19.2435C50.4385 18.9327 50.6501 18.5696 50.7866 18.1753C50.923 17.7809 50.9816 17.363 50.9588 16.9455C50.9972 16.1152 50.7114 15.3031 50.1637 14.6866Z" fill="#F2F2F2"/>
<path d="M63.0519 23.4739C61.913 23.4972 60.7871 23.223 59.7818 22.6775C58.8564 22.1484 58.0997 21.3599 57.6017 20.4056C57.0336 19.3449 56.7422 18.1536 56.7553 16.9455C56.7493 15.7508 57.0405 14.5739 57.6017 13.5246C58.1025 12.567 58.8698 11.7812 59.8074 11.2658C60.7944 10.7149 61.9007 10.4232 63.0263 10.4171C64.1372 10.398 65.2351 10.6628 66.2195 11.1875C67.1391 11.6934 67.8993 12.4538 68.4124 13.381C68.957 14.4017 69.2311 15.5492 69.2075 16.7105C69.2066 17.0905 69.1808 17.4699 69.1306 17.8464H60.5384C60.5479 18.5224 60.8145 19.1683 61.2822 19.6483C61.7878 20.0438 62.4152 20.2428 63.0519 20.2097V23.4739ZM65.2962 15.7443C65.3104 15.4467 65.2577 15.1496 65.1421 14.8759C65.0266 14.6021 64.8512 14.3588 64.6293 14.1644C64.1652 13.7634 63.5705 13.5538 62.9622 13.5769C62.3783 13.5579 61.8079 13.7576 61.3592 14.1383C60.9062 14.5569 60.6152 15.1264 60.5384 15.7443H65.2962Z" fill="#F2F2F2"/>
<path d="M76.8381 6.5L73.1319 23.278H69.2847L73.0806 6.5H76.8381Z" fill="#F2F2F2"/>
<path d="M77.723 13.5246C78.1604 12.598 78.8447 11.8153 79.6979 11.2657C80.5222 10.7181 81.4838 10.4235 82.4679 10.417C83.2703 10.4003 84.064 10.5889 84.7763 10.9654C85.3984 11.2909 85.9215 11.783 86.2895 12.3886V10.6521H90.1367V23.278H86.2895V21.4892C85.9037 22.0924 85.3743 22.5865 84.7506 22.9255C84.0403 23.2933 83.2519 23.4772 82.4551 23.4608C81.4795 23.4741 80.5213 23.1973 79.6979 22.6644C78.8464 22.1013 78.1632 21.3109 77.723 20.3794C77.2316 19.3048 76.986 18.1307 77.0049 16.9455C76.9821 15.764 77.2278 14.5933 77.723 13.5246ZM85.5072 14.6866C85.2623 14.4176 84.9643 14.2041 84.6329 14.0601C84.3015 13.9161 83.9439 13.8449 83.5836 13.851C83.2243 13.8432 82.8674 13.9124 82.536 14.0541C82.2046 14.1958 81.9061 14.4069 81.66 14.6736C81.3861 14.9796 81.1747 15.3381 81.0382 15.7281C80.9017 16.1182 80.8428 16.532 80.8649 16.9455C80.8219 17.7883 81.1076 18.6142 81.66 19.2435C81.908 19.5089 82.2064 19.7203 82.5371 19.8647C82.8677 20.0092 83.2238 20.0837 83.5836 20.0837C83.9435 20.0837 84.2995 20.0092 84.6302 19.8647C84.9609 19.7203 85.2593 19.5089 85.5072 19.2435C85.7803 18.932 85.99 18.5686 86.1242 18.1742C86.2585 17.7797 86.3147 17.3621 86.2895 16.9455C86.3314 16.117 86.0503 15.3051 85.5072 14.6866Z" fill="#F2F2F2"/>
<path d="M98.1903 11.0177C98.8893 10.6246 99.6745 10.418 100.473 10.4171C101.456 10.4098 102.421 10.6859 103.256 11.2135C104.103 11.7671 104.782 12.5491 105.218 13.4724C105.727 14.5548 105.973 15.7459 105.936 16.9455C105.964 18.1315 105.718 19.3077 105.218 20.3794C104.778 21.3074 104.1 22.097 103.256 22.6644C102.422 23.196 101.456 23.4724 100.473 23.4608C99.6802 23.4789 98.8955 23.2948 98.1903 22.9255C97.5654 22.6 97.0349 22.1139 96.6514 21.5154V23.278H92.8042V6.5H96.6514V12.4409C97.0264 11.8317 97.5588 11.3393 98.1903 11.0177ZM101.281 14.6736C101.033 14.4052 100.733 14.1932 100.399 14.0515C100.065 13.9097 99.706 13.8414 99.3445 13.851C98.9842 13.8449 98.6267 13.9161 98.2952 14.0601C97.9638 14.2041 97.6659 14.4176 97.4209 14.6866C96.8732 15.3031 96.5874 16.1152 96.6258 16.9455C96.5833 17.7842 96.8693 18.6059 97.4209 19.2304C97.6688 19.4959 97.9672 19.7073 98.2979 19.8517C98.6286 19.9961 98.9847 20.0706 99.3445 20.0706C99.7043 20.0706 100.06 19.9961 100.391 19.8517C100.722 19.7073 101.02 19.4959 101.268 19.2304C101.544 18.9226 101.758 18.5623 101.896 18.1701C102.035 17.778 102.096 17.3618 102.076 16.9455C102.098 16.532 102.039 16.1182 101.903 15.7282C101.766 15.3381 101.555 14.9796 101.281 14.6736Z" fill="#F2F2F2"/>
<path d="M66.1429 23.4609C67.1274 23.4609 67.9254 22.6483 67.9254 21.646C67.9254 20.6436 67.1274 19.8311 66.1429 19.8311C65.1584 19.8311 64.3604 20.6436 64.3604 21.646C64.3604 22.6483 65.1584 23.4609 66.1429 23.4609Z" fill="#FF7070"/>
</g>
<defs>
<filter id="filter0_d_815_7146" x="0" y="0.5" width="112" height="37" filterUnits="userSpaceOnUse" color-interpolation-filters="sRGB">
<feFlood flood-opacity="0" result="BackgroundImageFix"/>
<feColorMatrix in="SourceAlpha" type="matrix" values="0 0 0 0 0 0 0 0 0 0 0 0 0 0 0 0 0 0 127 0" result="hardAlpha"/>
<feOffset dx="-4" dy="4"/>
<feGaussianBlur stdDeviation="5"/>
<feComposite in2="hardAlpha" operator="out"/>
<feColorMatrix type="matrix" values="0 0 0 0 0 0 0 0 0 0 0 0 0 0 0 0 0 0 0.1 0"/>
<feBlend mode="normal" in2="BackgroundImageFix" result="effect1_dropShadow_815_7146"/>
<feBlend mode="normal" in="SourceGraphic" in2="effect1_dropShadow_815_7146" result="shape"/>
</filter>
<clipPath id="clip0_815_7146">
<rect width="92" height="17" fill="white" transform="translate(14 6.5)"/>
</clipPath>
</defs>
</svg>
