<svg width="24" height="24" viewBox="0 0 24 24" fill="none" xmlns="http://www.w3.org/2000/svg">
<g id="Drop down">
<path id="Vector" d="M10.8786 15.6277L6.14964 10.16C6.05214 10.0431 6.00055 9.91052 6 9.77548C5.99946 9.64045 6.04998 9.50766 6.14653 9.39035C6.24308 9.27303 6.38231 9.17526 6.55035 9.10678C6.71839 9.0383 6.9094 9.00148 7.10437 9H16.5623C16.7573 9.00148 16.9483 9.0383 17.1163 9.10678C17.2844 9.17526 17.4236 9.27303 17.5201 9.39035C17.6167 9.50766 17.6672 9.64045 17.6667 9.77548C17.6661 9.91052 17.6145 10.0431 17.517 10.16L12.7881 15.6277C12.6885 15.7414 12.5484 15.8353 12.3812 15.9005C12.2139 15.9657 12.0252 16 11.8333 16C11.6414 16 11.4527 15.9657 11.2855 15.9005C11.1183 15.8353 10.9781 15.7414 10.8786 15.6277Z" fill="white" stroke="white" stroke-width="1.16667" stroke-linecap="round" stroke-linejoin="round"/>
</g>
</svg>
