<svg width="49" height="49" viewBox="0 0 49 49" fill="none" xmlns="http://www.w3.org/2000/svg">
<path d="M24.4999 44.9166C35.7757 44.9166 44.9166 35.7758 44.9166 24.5C44.9166 13.2242 35.7757 4.08331 24.4999 4.08331C13.2241 4.08331 4.08325 13.2242 4.08325 24.5C4.08325 35.7758 13.2241 44.9166 24.4999 44.9166Z" fill="#D66C0F" stroke="#D66C0F" stroke-width="4.08333" stroke-linecap="round" stroke-linejoin="round"/>
<path d="M18.5588 18.375C19.0388 17.0105 19.9863 15.8599 21.2333 15.127C22.4804 14.3941 23.9466 14.1262 25.3722 14.3707C26.7979 14.6152 28.091 15.3564 29.0225 16.463C29.9541 17.5696 30.4639 18.9702 30.4618 20.4167C30.4618 24.5 24.3368 26.5417 24.3368 26.5417" stroke="white" stroke-width="4.08333" stroke-linecap="round" stroke-linejoin="round"/>
<path d="M24.5 34.7083H24.5204" stroke="white" stroke-width="4.08333" stroke-linecap="round" stroke-linejoin="round"/>
</svg>
