<svg width="49" height="49" viewBox="0 0 49 49" fill="none" xmlns="http://www.w3.org/2000/svg">
<path d="M24.5 44.9166C35.7758 44.9166 44.9166 35.7758 44.9166 24.5C44.9166 13.2242 35.7758 4.08331 24.5 4.08331C13.2242 4.08331 4.08331 13.2242 4.08331 24.5C4.08331 35.7758 13.2242 44.9166 24.5 44.9166Z" fill="#C1610E" stroke="#C1610E" stroke-width="4.08333" stroke-linecap="round" stroke-linejoin="round"/>
<path d="M18.5588 18.375C19.0388 17.0105 19.9862 15.8599 21.2333 15.127C22.4803 14.3941 23.9465 14.1262 25.3722 14.3707C26.7978 14.6152 28.0909 15.3564 29.0225 16.463C29.954 17.5696 30.4638 18.9702 30.4617 20.4167C30.4617 24.5 24.3367 26.5417 24.3367 26.5417" stroke="#F2F2F2" stroke-width="4.08333" stroke-linecap="round" stroke-linejoin="round"/>
<path d="M24.5 34.7083H24.5204" stroke="#F2F2F2" stroke-width="4.08333" stroke-linecap="round" stroke-linejoin="round"/>
</svg>
